{
  "source": "C:\\Users\\Peter\\Desktop\\stuff\\MIUN\\quantitative_research\\video_compression\\videos\\BVI-HD\\BVI-HD_CDVL_videos\\ORIG\\Lightreef_1920x1080_30fps.mp4",
  "output": "C:\\Users\\Peter\\Desktop\\stuff\\MIUN\\quantitative_research\\video_compression\\compressed_videos\\BVI-HD\\h264\\2\\Lightreef_1920x1080_30fps_h264.mp4",
  "codec": "h264",
  "ok": "Input #0, mov,mp4,m4a,3gp,3g2,mj2, from 'C:\\Users\\Peter\\Desktop\\stuff\\MIUN\\quantitative_research\\video_compression\\videos\\BVI-HD\\BVI-HD_CDVL_videos\\ORIG\\Lightreef_1920x1080_30fps.mp4':\n  Metadata:\n    major_brand     : isom\n    minor_version   : 512\n    compatible_brands: isomiso2avc1mp41\n    encoder         : Lavf54.28.101\n  Duration: 00:00:05.00, start: 0.000000, bitrate: 361719 kb/s\n  Stream #0:0[0x1](und): Video: h264 (High 4:4:4 Predictive) (avc1 / 0x31637661), yuv420p(progressive), 1920x1080, 361715 kb/s, 30 fps, 30 tbr, 30 tbn (default)\n    Metadata:\n      handler_name    : VideoHandler\n      vendor_id       : [0][0][0][0]\n[out#0/mp4 @ 000002b97acaf200] Codec AVOption b:a (set bitrate (in bits/s)) has not been used for any stream. The most likely reason is either wrong type (e.g. a video option with no video streams) or that it is a private option of some decoder which was not actually used for any stream.\nStream mapping:\n  Stream #0:0 -> #0:0 (h264 (native) -> h264 (libx264))\nPress [q] to stop, [?] for help\n[libx264 @ 000002b97aab0c00] using cpu capabilities: MMX2 SSE2Fast SSSE3 SSE4.2 AVX FMA3 BMI2 AVX2\n[libx264 @ 000002b97aab0c00] profile High, level 5.0, 4:2:0, 8-bit\n[libx264 @ 000002b97aab0c00] 264 - core 165 r3222 b35605a - H.264/MPEG-4 AVC codec - Copyleft 2003-2025 - http://www.videolan.org/x264.html - options: cabac=1 ref=5 deblock=1:0:0 analyse=0x3:0x113 me=hex subme=8 psy=1 psy_rd=1.00:0.00 mixed_ref=1 me_range=16 chroma_me=1 trellis=2 8x8dct=1 cqm=0 deadzone=21,11 fast_pskip=1 chroma_qp_offset=-2 threads=18 lookahead_threads=3 sliced_threads=0 nr=0 decimate=1 interlaced=0 bluray_compat=0 constrained_intra=0 bframes=3 b_pyramid=2 b_adapt=1 b_bias=0 direct=3 weightb=1 open_gop=0 weightp=2 keyint=250 keyint_min=25 scenecut=40 intra_refresh=0 rc_lookahead=50 rc=cbr mbtree=1 bitrate=2000 ratetol=1.0 qcomp=0.60 qpmin=0 qpmax=69 qpstep=4 vbv_maxrate=2000 vbv_bufsize=2000 nal_hrd=none filler=0 ip_ratio=1.40 aq=1:1.00\nOutput #0, mp4, to 'C:\\Users\\Peter\\Desktop\\stuff\\MIUN\\quantitative_research\\video_compression\\compressed_videos\\BVI-HD\\h264\\2\\Lightreef_1920x1080_30fps_h264.mp4':\n  Metadata:\n    major_brand     : isom\n    minor_version   : 512\n    compatible_brands: isomiso2avc1mp41\n    encoder         : Lavf62.3.100\n  Stream #0:0(und): Video: h264 (avc1 / 0x31637661), yuv420p(tv, progressive), 1920x1080, q=2-31, 2000 kb/s, 30 fps, 15360 tbn (default)\n    Metadata:\n      encoder         : Lavc62.11.100 libx264\n      handler_name    : VideoHandler\n      vendor_id       : [0][0][0][0]\n    Side data:\n      cpb: bitrate max/min/avg: 2000000/0/2000000 buffer size: 2000000 vbv_delay: N/A\nframe=    0 fps=0.0 q=0.0 size=       0KiB time=N/A bitrate=N/A speed=N/A elapsed=0:00:00.50    \nframe=    0 fps=0.0 q=0.0 size=       0KiB time=N/A bitrate=N/A speed=N/A elapsed=0:00:01.05    \nframe=    0 fps=0.0 q=0.0 size=       0KiB time=N/A bitrate=N/A speed=N/A elapsed=0:00:01.59    \nframe=   27 fps= 12 q=42.0 size=       0KiB time=00:00:00.73 bitrate=   0.5kbits/s speed=0.339x elapsed=0:00:02.16    \nframe=   46 fps= 17 q=43.0 size=     256KiB time=00:00:01.43 bitrate=1463.4kbits/s speed=0.522x elapsed=0:00:02.74    \nframe=   71 fps= 21 q=43.0 size=     256KiB time=00:00:02.30 bitrate= 912.0kbits/s speed=0.695x elapsed=0:00:03.31    \nframe=  103 fps= 27 q=43.0 size=     512KiB time=00:00:03.36 bitrate=1245.9kbits/s speed=0.877x elapsed=0:00:03.83    \nframe=  135 fps= 31 q=-1.0 size=     768KiB time=00:00:04.43 bitrate=1419.2kbits/s speed=1.01x elapsed=0:00:04.37    \n[mp4 @ 000002b979f29a40] Starting second pass: moving the moov atom to the beginning of the file\n[out#0/mp4 @ 000002b97acaf200] video:1067KiB audio:0KiB subtitle:0KiB other streams:0KiB global headers:0KiB muxing overhead: 0.242715%\nframe=  150 fps= 34 q=-1.0 Lsize=    1069KiB time=00:00:04.93 bitrate=1775.5kbits/s speed=1.11x elapsed=0:00:04.46    \n[libx264 @ 000002b97aab0c00] frame I:1     Avg QP:41.65  size: 53301\n[libx264 @ 000002b97aab0c00] frame P:38    Avg QP:42.66  size: 16955\n[libx264 @ 000002b97aab0c00] frame B:111   Avg QP:46.74  size:  3548\n[libx264 @ 000002b97aab0c00] consecutive B-frames:  0.7%  0.0%  6.0% 93.3%\n[libx264 @ 000002b97aab0c00] mb I  I16..4: 31.3% 63.3%  5.4%\n[libx264 @ 000002b97aab0c00] mb P  I16..4:  2.6%  2.2%  0.1%  P16..4: 48.2%  3.9%  5.4%  0.0%  0.0%    skip:37.6%\n[libx264 @ 000002b97aab0c00] mb B  I16..4:  0.0%  0.0%  0.0%  B16..8: 35.1%  0.4%  0.0%  direct: 0.3%  skip:64.2%  L0:39.4% L1:60.0% BI: 0.5%\n[libx264 @ 000002b97aab0c00] 8x8 transform intra:52.3% inter:87.3%\n[libx264 @ 000002b97aab0c00] direct mvs  spatial:91.0% temporal:9.0%\n[libx264 @ 000002b97aab0c00] coded y,uvDC,uvAC intra: 30.9% 47.3% 8.3% inter: 4.8% 9.4% 0.0%\n[libx264 @ 000002b97aab0c00] i16 v,h,dc,p: 26% 32% 11% 32%\n[libx264 @ 000002b97aab0c00] i8 v,h,dc,ddl,ddr,vr,hd,vl,hu:  5%  3% 18% 10% 16% 10% 17%  7% 14%\n[libx264 @ 000002b97aab0c00] i4 v,h,dc,ddl,ddr,vr,hd,vl,hu:  3%  3%  6% 11% 18% 12% 19%  8% 20%\n[libx264 @ 000002b97aab0c00] i8c dc,h,v,p: 59% 23% 10%  8%\n[libx264 @ 000002b97aab0c00] Weighted P-Frames: Y:47.4% UV:26.3%\n[libx264 @ 000002b97aab0c00] ref P L0: 55.2%  9.6% 15.7%  7.9%  7.0%  4.7%\n[libx264 @ 000002b97aab0c00] ref B L0: 93.6%  4.6%  1.3%  0.6%\n[libx264 @ 000002b97aab0c00] ref B L1: 98.7%  1.3%\n[libx264 @ 000002b97aab0c00] kb/s:1746.34\n",
  "seconds": 4.768691778182983,
  "probe_out": {}
}